<?xml version="1.0" encoding="UTF-8"?> <svg xmlns="http://www.w3.org/2000/svg" width="38" height="38" viewBox="0 0 38 38" fill="none"> <path d="M10.4329 14.6621C9.17352 14.6623 7.95063 15.0826 6.95997 15.8559C5.96932 16.6291 5.26819 17.7106 4.96883 18.9271L0.489868 37.2714H6.67898C7.94504 37.2719 9.17465 36.8499 10.1709 36.0729C11.1671 35.2959 11.8722 34.2088 12.1734 32.9859L14.1191 24.931H19.9314C21.1928 24.931 22.4177 24.5102 23.4101 23.7359C24.4026 22.9615 25.1051 21.8785 25.4053 20.6601L26.877 14.667L10.4329 14.6621Z" fill="#21D4FD"></path> <path d="M37.5101 0.00292716L36.0383 5.99897C35.7376 7.21678 35.0346 8.29901 34.042 9.07231C33.0493 9.84561 31.8244 10.2652 30.5635 10.264H7.10022L8.57882 4.25919C8.87792 3.04429 9.57822 1.96431 10.5676 1.19212C11.557 0.419918 12.7783 0.000150011 14.036 0L37.5101 0.00292716Z" fill="#21D4FD"></path> </svg> 